{
	"asset":{
		"generator":"Khronos glTF Blender I/O v3.5.30",
		"version":"2.0"
	},
	"extensionsUsed":[
		"KHR_materials_specular",
		"KHR_materials_ior"
	],
	"scene":0,
	"scenes":[
		{
			"name":"Scene",
			"nodes":[
				0,
				1,
				2
			]
		}
	],
	"nodes":[
		{
			"mesh":0,
			"name":"prevSphereMaterial",
			"rotation":[
				0.7071068286895752,
				0,
				0,
				0.7071068286895752
			],
			"translation":[
				0,
				1,
				0
			]
		},
		{
			"mesh":1,
			"name":"Plane",
			"scale":[
				20,
				20,
				20
			]
		},
		{
			"mesh":2,
			"name":"Sphere",
			"translation":[
				3.743863821029663,
				1,
				0
			]
		}
	],
	"materials":[
		{
			"doubleSided":true,
			"extensions":{
				"KHR_materials_specular":{
					"specularColorTexture":{
						"index":0
					}
				},
				"KHR_materials_ior":{
					"ior":1.4500000476837158
				}
			},
			"name":"Sphere",
			"normalTexture":{
				"index":1
			},
			"pbrMetallicRoughness":{
				"baseColorTexture":{
					"index":2
				},
				"metallicRoughnessTexture":{
					"index":3
				}
			}
		},
		{
			"doubleSided":true,
			"name":"Material.001",
			"pbrMetallicRoughness":{
				"baseColorFactor":[
					0.012982003390789032,
					0.012982003390789032,
					0.012982003390789032,
					1
				],
				"metallicFactor":0,
				"roughnessFactor":0.5
			}
		},
		{
			"doubleSided":true,
			"name":"Material.002",
			"pbrMetallicRoughness":{
				"baseColorFactor":[
					0.800000011920929,
					0.800000011920929,
					0.800000011920929,
					1
				],
				"roughnessFactor":0
			}
		}
	],
	"meshes":[
		{
			"name":"prevSphereMaterial",
			"primitives":[
				{
					"attributes":{
						"POSITION":0,
						"TEXCOORD_0":1,
						"NORMAL":2
					},
					"indices":3,
					"material":0
				}
			]
		},
		{
			"name":"Plane",
			"primitives":[
				{
					"attributes":{
						"POSITION":4,
						"TEXCOORD_0":5,
						"NORMAL":6
					},
					"indices":7,
					"material":1
				}
			]
		},
		{
			"name":"Sphere",
			"primitives":[
				{
					"attributes":{
						"POSITION":8,
						"TEXCOORD_0":9,
						"NORMAL":10
					},
					"indices":11,
					"material":2
				}
			]
		}
	],
	"textures":[
		{
			"sampler":0,
			"source":0
		},
		{
			"sampler":0,
			"source":1
		},
		{
			"sampler":0,
			"source":2
		},
		{
			"sampler":0,
			"source":3
		}
	],
	"images":[
		{
			"mimeType":"image/png",
			"name":"Image",
			"uri":"Image.png"
		},
		{
			"mimeType":"image/png",
			"name":"PreviewSphere_Sphere_Normal",
			"uri":"PreviewSphere_Sphere_Normal.png"
		},
		{
			"mimeType":"image/png",
			"name":"PreviewSphere_Sphere_Diffuse",
			"uri":"PreviewSphere_Sphere_Diffuse.png"
		},
		{
			"mimeType":"image/png",
			"name":"PreviewSphere_Sphere_Glossiness",
			"uri":"PreviewSphere_Sphere_Glossiness.png"
		}
	],
	"accessors":[
		{
			"bufferView":0,
			"componentType":5126,
			"count":39323,
			"max":[
				0.9885820150375366,
				0.9642329812049866,
				1
			],
			"min":[
				-0.9885820150375366,
				-0.9642329812049866,
				-1
			],
			"type":"VEC3"
		},
		{
			"bufferView":1,
			"componentType":5126,
			"count":39323,
			"type":"VEC2"
		},
		{
			"bufferView":2,
			"componentType":5126,
			"count":39323,
			"type":"VEC3"
		},
		{
			"bufferView":3,
			"componentType":5123,
			"count":121110,
			"type":"SCALAR"
		},
		{
			"bufferView":4,
			"componentType":5126,
			"count":4,
			"max":[
				1,
				0,
				1
			],
			"min":[
				-1,
				0,
				-1
			],
			"type":"VEC3"
		},
		{
			"bufferView":5,
			"componentType":5126,
			"count":4,
			"type":"VEC2"
		},
		{
			"bufferView":6,
			"componentType":5126,
			"count":4,
			"type":"VEC3"
		},
		{
			"bufferView":7,
			"componentType":5123,
			"count":6,
			"type":"SCALAR"
		},
		{
			"bufferView":8,
			"componentType":5126,
			"count":559,
			"max":[
				0.9999997019767761,
				1,
				0.9999993443489075
			],
			"min":[
				-0.9999990463256836,
				-1,
				-1
			],
			"type":"VEC3"
		},
		{
			"bufferView":9,
			"componentType":5126,
			"count":559,
			"type":"VEC2"
		},
		{
			"bufferView":10,
			"componentType":5126,
			"count":559,
			"type":"VEC3"
		},
		{
			"bufferView":11,
			"componentType":5123,
			"count":2880,
			"type":"SCALAR"
		}
	],
	"bufferViews":[
		{
			"buffer":0,
			"byteLength":471876,
			"byteOffset":0,
			"target":34962
		},
		{
			"buffer":0,
			"byteLength":314584,
			"byteOffset":471876,
			"target":34962
		},
		{
			"buffer":0,
			"byteLength":471876,
			"byteOffset":786460,
			"target":34962
		},
		{
			"buffer":0,
			"byteLength":242220,
			"byteOffset":1258336,
			"target":34963
		},
		{
			"buffer":0,
			"byteLength":48,
			"byteOffset":1500556,
			"target":34962
		},
		{
			"buffer":0,
			"byteLength":32,
			"byteOffset":1500604,
			"target":34962
		},
		{
			"buffer":0,
			"byteLength":48,
			"byteOffset":1500636,
			"target":34962
		},
		{
			"buffer":0,
			"byteLength":12,
			"byteOffset":1500684,
			"target":34963
		},
		{
			"buffer":0,
			"byteLength":6708,
			"byteOffset":1500696,
			"target":34962
		},
		{
			"buffer":0,
			"byteLength":4472,
			"byteOffset":1507404,
			"target":34962
		},
		{
			"buffer":0,
			"byteLength":6708,
			"byteOffset":1511876,
			"target":34962
		},
		{
			"buffer":0,
			"byteLength":5760,
			"byteOffset":1518584,
			"target":34963
		}
	],
	"samplers":[
		{
			"magFilter":9729,
			"minFilter":9987
		}
	],
	"buffers":[
		{
			"byteLength":1524344,
			"uri":"DoblePaint.bin"
		}
	]
}
